<svg xmlns="http://www.w3.org/2000/svg" version="1.1" xmlns:xlink="http://www.w3.org/1999/xlink" xmlns:svgjs="http://svgjs.dev/svgjs" width="2000" height="1247" viewBox="0 0 2000 1247"><g transform="matrix(1,0,0,1,-1.2121212121212466,0.504858299595071)"><svg viewBox="0 0 396 247" data-background-color="#ffffff" preserveAspectRatio="xMidYMid meet" height="1247" width="2000" xmlns="http://www.w3.org/2000/svg" xmlns:xlink="http://www.w3.org/1999/xlink"><g id="tight-bounds" transform="matrix(1,0,0,1,0.2400000000000091,-0.09999999999999432)"><svg viewBox="0 0 395.52 247.2" height="247.2" width="395.52"><g><svg></svg></g><g><svg viewBox="0 0 395.52 247.2" height="247.2" width="395.52"><g transform="matrix(1,0,0,1,105.68903571428571,47.215199999999996)"><svg viewBox="0 0 184.14192857142856 152.7696" height="152.7696" width="184.14192857142856"><g><svg viewBox="0 0 184.14192857142856 152.7696" height="152.7696" width="184.14192857142856"><g><svg viewBox="0 0 184.14192857142856 152.7696" height="152.7696" width="184.14192857142856"><g><svg viewBox="0 0 184.14192857142856 152.7696" height="152.7696" width="184.14192857142856"><g id="textblocktransform"><svg viewBox="0 0 184.14192857142856 152.7696" height="152.7696" width="184.14192857142856" id="textblock"><g><svg viewBox="0 0 184.14192857142856 152.7696" height="152.7696" width="184.14192857142856"><g transform="matrix(1,0,0,1,0,0)"><svg width="184.14192857142856" viewBox="2.700000047683716 -33.54999923706055 40.5 33.599998474121094" height="152.7696" data-palette-color="#a437db"><path d="M3.65 0.05Q3 0.05 2.75-0.95L2.75-0.95Q2.7-1.1 2.7-1.45L2.7-1.45Q2.7-1.95 2.9-2.95L2.9-2.95Q3-3.6 3.08-3.98 3.15-4.35 3.2-4.55L3.2-4.55Q4.7-11.6 6.15-16.95L6.15-16.95 9.65-32.75Q9.65-32.85 9.8-33.05 9.95-33.25 10.15-33.3L10.15-33.3 10.4-33.3Q10.4-33.25 10.55-33.25L10.55-33.25Q11.15-33.25 11.9-33.4L11.9-33.4Q12.65-33.55 13.25-33.55L13.25-33.55Q14.35-33.55 15.3-33.4L15.3-33.4Q15.75-33.4 16.3-33.35 16.85-33.3 17.45-33.3L17.45-33.3Q17.65-33.3 17.9-33.4L17.9-33.4 18.8-33.4 19.95-33.4 21.15-33.45Q21.5-33.5 22-33.5L22-33.5Q22.4-33.5 22.4-33.55L22.4-33.55 23.2-33.55 24.9-33.55 27-33.55Q29.8-33.55 30.7-33.45L30.7-33.45Q30.85-33.45 31.13-33.43 31.4-33.4 31.45-33.3L31.45-33.3Q31.8-33.3 32.15-33.35 32.5-33.4 32.8-33.4L32.8-33.4Q33.5-33.55 34.15-33.55L34.15-33.55Q34.45-33.55 34.75-33.4L34.75-33.4Q35.05-33.25 35.4-33.25L35.4-33.25 35.65-33.3 35.8-33.3Q35.95-33.2 36.13-33.02 36.3-32.85 36.3-32.75L36.3-32.75 39.8-16.95Q41.4-11.1 42.7-4.55L42.7-4.55Q42.7-4.25 42.9-3.9L42.9-3.9Q42.95-3.55 43.05-2.95 43.15-2.35 43.15-1.95L43.15-1.95Q43.2-1.75 43.2-1.4L43.2-1.4Q43.2-0.7 42.9-0.25L42.9-0.25Q42.7 0.05 42.3 0.05L42.3 0.05 41.65 0.05Q40.9 0.05 40.5 0L40.5 0 39.2 0 37.95 0 36.95 0Q36.55 0 36.55-0.05L36.55-0.05 33.4-0.05 33.4-0.15Q33.2-0.25 32.9-0.25L32.9-0.25Q32.9-0.25 32.88-0.23 32.85-0.2 32.8-0.15L32.8-0.15Q32.8-0.05 32.7-0.05L32.7-0.05 32.55-0.05 32.15-0.05Q31.9-0.15 31.15-0.15L31.15-0.15Q29.65-0.25 28.8-0.25L28.8-0.25Q28.5-0.7 28.18-2.05 27.85-3.4 27.5-5.05L27.5-5.05Q27.4-5.85 27.3-6.15L27.3-6.15Q26.25-5.95 24.55-5.95L24.55-5.95 23-5.95 21.55-5.95 21.2-4.35Q20.55-1.05 20.15-0.25L20.15-0.25Q19.95-0.25 19.65-0.15L19.65-0.15Q19.55-0.1 19.48-0.08 19.4-0.05 19.4-0.05L19.4-0.05 19.2-0.05Q18.9-0.05 18.75-0.15L18.75-0.15Q18.65-0.25 18.5-0.25L18.5-0.25 16.25-0.15 15.45-0.15 14.7-0.15Q14.5-0.05 14.2-0.05L14.2-0.05 14-0.05 9.4-0.05 8.95-0.05Q8.4 0 6.7 0L6.7 0 5.4 0Q5 0.05 4.25 0.05L4.25 0.05 3.65 0.05ZM26.75-12.2Q26.4-14.65 26.4-14.65L26.4-14.65Q26.25-15.35 25.9-17.3L25.9-17.3Q25.8-17.8 25.4-20L25.4-20Q25-22.4 25-22.4L25-22.4Q24.85-23.4 24.7-24.15L24.7-24.15 24.65-24.8Q24.5-25.05 24.5-25.25L24.5-25.25 24.45-25.55Q24.4-25.45 24.4-25.25L24.4-25.25Q24.4-25.05 24.3-25L24.3-25 24.3-24.8 24.2-24.15Q24.15-23.8 24.08-23.38 24-22.95 23.9-22.45L23.9-22.45 23.65-21.05Q23.1-17.9 23-17.4L23-17.4Q22.95-16.85 22.75-15.75L22.75-15.75Q22.65-15.4 22.55-14.7L22.55-14.7 22.15-12.4 24.7-12.4 25.05-12.5 25.15-12.5Q25.75-12.5 26.05-12.4L26.05-12.4Q26.25-12.4 26.43-12.33 26.6-12.25 26.75-12.2L26.75-12.2Z" opacity="1" transform="matrix(1,0,0,1,0,0)" fill="#a437db" class="undefined-text-0" data-fill-palette-color="primary" id="text-0"></path></svg></g></svg></g></svg></g></svg></g></svg></g></svg></g></svg></g><g><path d="M0 123.6c0-68.262 55.338-123.6 123.6-123.6 30.402 0 58.24 10.976 79.768 29.183l-11.147 0c-19.26-14.022-42.974-22.294-68.621-22.295-64.458 0-116.712 52.254-116.712 116.712 0 64.458 52.254 116.712 116.712 116.712 25.647 0 49.361-8.272 68.621-22.295l11.147 0c-21.528 18.206-49.366 29.183-79.768 29.183-68.262 0-123.6-55.338-123.6-123.6z" fill="#a437db" stroke="transparent" data-fill-palette-color="tertiary"></path></g></svg></g><defs></defs></svg><rect width="395.52" height="247.2" fill="none" stroke="none" visibility="hidden"></rect></g></svg></g></svg>