<svg xmlns="http://www.w3.org/2000/svg" version="1.1" xmlns:xlink="http://www.w3.org/1999/xlink" xmlns:svgjs="http://svgjs.dev/svgjs" width="2000" height="1999" viewBox="0 0 2000 1999"><g transform="matrix(1,0,0,1,-0.431486880466764,-0.4312711370263287)"><svg viewBox="0 0 343 343" data-background-color="#35185a" preserveAspectRatio="xMidYMid meet" height="1999" width="2000" xmlns="http://www.w3.org/2000/svg" xmlns:xlink="http://www.w3.org/1999/xlink"><g id="tight-bounds" transform="matrix(1,0,0,1,0.0740000000000407,0.07400000000001228)"><svg viewBox="0 0 342.85155851775386 342.85155851775386" height="342.85155851775386" width="342.85155851775386"><g><svg></svg></g><g><svg viewBox="0 0 342.85155851775386 342.85155851775386" height="342.85155851775386" width="342.85155851775386"><g><path d="M0 171.426c0-94.676 76.75-171.426 171.426-171.426 94.676 0 171.426 76.75 171.426 171.426 0 94.676-76.75 171.426-171.426 171.426-94.676 0-171.426-76.75-171.426-171.426zM171.426 337.762c91.865 0 166.337-74.471 166.336-166.336 0-91.865-74.471-166.337-166.336-166.337-91.865 0-166.337 74.471-166.337 166.337 0 91.865 74.471 166.337 166.337 166.336z" data-fill-palette-color="tertiary" fill="#a437db" stroke="transparent"></path><ellipse rx="164.56874808852186" ry="164.56874808852186" cx="171.42577925887693" cy="171.42577925887693" fill="#a437db" stroke="transparent" stroke-width="0" fill-opacity="1" data-fill-palette-color="tertiary"></ellipse></g><g transform="matrix(1,0,0,1,64.84655864529837,106.53326281971303)"><svg viewBox="0 0 213.1584412271571 129.7850328783278" height="129.7850328783278" width="213.1584412271571"><g><svg viewBox="0 0 213.1584412271571 129.7850328783278" height="129.7850328783278" width="213.1584412271571"><g><svg viewBox="0 0 213.1584412271571 129.7850328783278" height="129.7850328783278" width="213.1584412271571"><g transform="matrix(1,0,0,1,0,73.35213965906674)"><svg viewBox="0 0 213.1584412271571 56.432893219261075" height="56.432893219261075" width="213.1584412271571"><g id="textblocktransform"><svg viewBox="0 0 213.1584412271571 56.432893219261075" height="56.432893219261075" width="213.1584412271571" id="textblock"><g><svg viewBox="0 0 213.1584412271571 56.432893219261075" height="56.432893219261075" width="213.1584412271571"><g transform="matrix(1,0,0,1,0,0)"><svg width="213.1584412271571" viewBox="1.0499999523162842 -36.15999984741211 142.37998962402344 37.70000076293945" height="56.432893219261075" data-palette-color="#35185a"><path d="M1.64-1.78L1.64-1.78Q1.95-2.42 2.29-3.21 2.64-4 2.93-4.93L2.93-4.93 3.59-6.54Q3.15-7.2 2.7-7.97 2.25-8.74 1.88-9.55 1.51-10.35 1.28-11.16 1.05-11.96 1.05-12.72L1.05-12.72Q1.05-12.77 1.43-12.81 1.81-12.84 2.38-12.87 2.95-12.89 3.63-12.9 4.3-12.92 4.87-12.93 5.44-12.94 5.82-12.95 6.2-12.96 6.2-12.96L6.2-12.96Q6.76-14.43 7.3-15.75 7.84-17.07 8.37-18.41 8.91-19.75 9.45-21.15 9.99-22.56 10.52-24.17L10.52-24.17Q11.55-27.2 12.52-29.49 13.5-31.79 14.36-33.76L14.36-33.76Q14.45-34.01 14.69-34.22 14.92-34.42 15.19-34.57 15.45-34.72 15.71-34.81 15.97-34.91 16.11-34.96L16.11-34.96Q16.21-34.99 16.86-35.18 17.5-35.38 18.33-35.6 19.17-35.82 19.98-35.99 20.8-36.16 21.29-36.16L21.29-36.16 21.73-36.16Q22.12-36.16 22.47-35.97 22.83-35.79 22.95-35.25L22.95-35.25Q24.12-32.25 25.45-28.7 26.78-25.15 28.05-20.87L28.05-20.87Q28.74-18.58 29.39-16.53 30.05-14.48 30.71-12.52 31.37-10.57 32.04-8.62 32.71-6.67 33.42-4.59L33.42-4.59Q33.64-3.71 33.87-3.2 34.11-2.69 34.3-2.39 34.5-2.1 34.62-1.97 34.74-1.83 34.74-1.68L34.74-1.68Q34.74-1.54 34.28-1.39L34.28-1.39 29.03 0.32Q28.44 0.54 27.83 0.76 27.22 0.98 26.68 1.15 26.15 1.32 25.74 1.43 25.34 1.54 25.17 1.54L25.17 1.54 25.02 1.54Q24.68 1.54 24.54 1.33 24.39 1.12 24.34 0.93L24.34 0.93Q24.1 0.12 23.85-0.52 23.61-1.17 23.38-1.82 23.14-2.47 22.91-3.2 22.68-3.93 22.46-4.93L22.46-4.93Q22.41-5.05 22.19-5.14 21.97-5.22 21.67-5.27 21.36-5.32 21.02-5.33 20.68-5.35 20.39-5.35L20.39-5.35Q19.46-5.35 18.88-5.33 18.31-5.32 17.87-5.31 17.43-5.3 17.03-5.29 16.63-5.27 16.04-5.27L16.04-5.27Q15.33-5.27 14.59-5.29 13.84-5.3 13.23-5.32L13.23-5.32 11.84-5.37Q11.21-3.61 10.57-2.08 9.94-0.54 9.2 1.1L9.2 1.1Q9.16 1.29 8.97 1.42 8.79 1.54 8.59 1.54L8.59 1.54Q8.45 1.54 8.42 1.51L8.42 1.51Q6.05 0.66 4.44-0.17 2.83-1 1.64-1.78ZM18.09-23.73L18.09-23.73Q17.5-21.56 16.93-19.79 16.36-18.02 15.88-16.65 15.41-15.28 15.06-14.34 14.72-13.4 14.58-12.89L14.58-12.89 14.58-12.67Q14.58-12.52 14.55-12.48L14.55-12.48 20.41-12.48Q20.14-13.67 19.84-14.89 19.53-16.11 19.24-17.46 18.95-18.8 18.65-20.34 18.36-21.88 18.09-23.73ZM78.29-0.78L72.29 0.88Q72.02 0.95 71.58 1.11 71.14 1.27 70.73 1.27L70.73 1.27Q70.38 1.27 70.13 1.1 69.87 0.93 69.87 0.51L69.87 0.51 69.87 0.37Q70.04-1.42 70.16-2.53 70.29-3.64 70.36-4.32 70.43-5 70.48-5.36 70.53-5.71 70.58-6.02 70.63-6.32 70.66-6.69 70.7-7.06 70.77-7.73 70.85-8.4 70.96-9.51 71.07-10.62 71.24-12.43L71.24-12.43Q71.34-13.4 71.45-14.37 71.56-15.33 71.56-16.14L71.56-16.14Q71.56-17.16 71.45-18.01 71.34-18.85 71.05-19.45 70.77-20.04 70.29-20.39 69.8-20.73 69.04-20.73L69.04-20.73Q68.58-20.73 67.83-20.53 67.09-20.34 66.33-19.84 65.57-19.34 64.96-18.52 64.35-17.7 64.18-16.46L64.18-16.46 64.18-16.36Q63.89-13.57 63.66-11.54 63.43-9.5 63.25-8.03 63.08-6.57 62.97-5.59 62.86-4.61 62.79-3.94 62.72-3.27 62.68-2.83 62.64-2.39 62.64-2L62.64-2Q62.64-1.81 62.66-1.67 62.67-1.54 62.67-1.44L62.67-1.44Q62.67-1.25 62.49-1.11 62.3-0.98 61.67-0.78L61.67-0.78 55.93 0.88Q55.66 0.95 55.22 1.11 54.78 1.27 54.37 1.27L54.37 1.27Q54.03 1.27 53.77 1.1 53.51 0.93 53.51 0.51L53.51 0.51 53.51 0.37Q53.68-1.42 53.79-2.53 53.9-3.64 53.99-4.32 54.07-5 54.12-5.36 54.17-5.71 54.21-6.02 54.25-6.32 54.29-6.69 54.34-7.06 54.4-7.73 54.47-8.4 54.58-9.51 54.69-10.62 54.86-12.43L54.86-12.43Q54.95-13.4 55.06-14.37 55.17-15.33 55.17-16.14L55.17-16.14Q55.17-17.16 55.08-18.01 54.98-18.85 54.72-19.45 54.47-20.04 54.03-20.39 53.59-20.73 52.9-20.73L52.9-20.73Q52.41-20.73 51.57-20.48 50.73-20.24 49.89-19.68 49.05-19.12 48.4-18.2 47.75-17.29 47.65-15.94L47.65-15.94Q47.46-14.14 47.34-12.98 47.21-11.82 47.14-11.07 47.07-10.33 47.03-9.88 46.99-9.42 46.97-9.03L46.97-9.03Q46.95-8.94 46.9-8.48 46.85-8.03 46.79-7.41 46.73-6.79 46.66-6.07 46.6-5.35 46.56-4.72 46.51-4.1 46.47-3.65 46.43-3.2 46.43-3.1L46.43-3.1 46.43-2.66Q46.43-2.42 46.41-2.25 46.38-2.08 46.26-1.93 46.14-1.78 45.91-1.66 45.68-1.54 45.26-1.39L45.26-1.39 38.86 0.88Q38.6 0.98 38.16 1.12 37.72 1.27 37.3 1.27L37.3 1.27Q36.96 1.27 36.7 1.1 36.45 0.93 36.45 0.51L36.45 0.51 38.64-24.39Q38.72-25.2 38.83-25.5 38.94-25.81 39.38-25.9L39.38-25.9Q41.6-26.34 43.92-26.79 46.24-27.25 48.46-27.95L48.46-27.95Q48.65-27.95 48.69-27.89 48.73-27.83 48.73-27.71L48.73-27.71 48.41-24.15Q49.31-24.61 50.44-25.16 51.56-25.71 52.79-26.17 54.03-26.64 55.31-26.94 56.59-27.25 57.81-27.25L57.81-27.25Q59.49-27.25 60.92-26.48 62.35-25.71 63.28-23.93L63.28-23.93Q64.38-24.63 65.61-25.24 66.84-25.85 68.12-26.29 69.41-26.73 70.7-26.98 71.99-27.22 73.22-27.22L73.22-27.22Q74.75-27.22 76.12-26.78 77.49-26.34 78.5-25.34 79.51-24.34 80.1-22.74 80.69-21.14 80.69-18.85L80.69-18.85Q80.69-18.26 80.66-17.64 80.64-17.02 80.56-16.36L80.56-16.36 79.44-5.91Q79.32-4.88 79.29-4.02 79.27-3.15 79.27-2L79.27-2Q79.27-1.81 79.28-1.67 79.29-1.54 79.29-1.44L79.29-1.44Q79.29-1.22 79.11-1.1 78.93-0.98 78.29-0.78L78.29-0.78ZM111.81-27.66L109.3-4.91Q109.27-4.81 109.27-4.72 109.27-4.64 109.27-4.57L109.27-4.57Q109.27-3.96 109.47-3.55 109.66-3.15 109.89-2.89 110.13-2.64 110.32-2.48 110.52-2.32 110.52-2.2L110.52-2.2Q110.52-1.86 109.79-1.56L109.79-1.56 103.22 1.25Q103.19 1.27 103.05 1.27L103.05 1.27Q102.85 1.27 102.66 0.93 102.46 0.59 102.28 0.06 102.09-0.46 101.94-1.06 101.78-1.66 101.66-2.17L101.66-2.17Q100.12-0.39 98.33 0.44 96.55 1.27 94.79 1.27L94.79 1.27Q92.74 1.27 90.79 0.37 88.84-0.54 87.32-2.21 85.81-3.88 84.89-6.25 83.98-8.62 83.98-11.57L83.98-11.57Q83.98-15.06 84.99-17.94 86.01-20.83 87.74-22.9 89.47-24.98 91.78-26.11 94.09-27.25 96.67-27.25L96.67-27.25Q98.51-27.25 100.14-26.5 101.78-25.76 103.24-24.58L103.24-24.58Q103.39-25.32 103.41-25.76 103.44-26.2 103.52-26.44 103.61-26.68 103.85-26.77 104.1-26.86 104.66-26.9L104.66-26.9Q106.42-27.15 108.16-27.36 109.91-27.56 111.81-27.66L111.81-27.66ZM100.97-6.88L102-14.11Q102.24-15.5 102.33-16.74 102.41-17.97 102.46-18.99L102.46-18.99Q102.07-19.29 101.62-19.6 101.17-19.92 100.64-20.2 100.12-20.48 99.54-20.65 98.97-20.83 98.33-20.83L98.33-20.83Q97.02-20.83 96.13-19.97 95.23-19.12 94.68-17.87 94.14-16.63 93.9-15.23 93.67-13.84 93.67-12.77L93.67-12.77Q93.67-8.91 94.68-7.12 95.7-5.32 97.5-5.32L97.5-5.32Q98.24-5.32 99.14-5.74 100.04-6.15 100.97-6.88L100.97-6.88ZM141.03-0.78L135.1 0.88Q134.83 0.95 134.39 1.11 133.95 1.27 133.54 1.27L133.54 1.27Q133.2 1.27 132.94 1.1 132.68 0.93 132.68 0.51L132.68 0.51 132.68 0.37Q132.83-0.95 132.93-1.87 133.02-2.78 133.11-3.53 133.2-4.27 133.26-5.02 133.32-5.76 133.42-6.75 133.51-7.74 133.65-9.09 133.78-10.45 133.98-12.48L133.98-12.48Q134.1-13.72 134.2-15.01 134.29-16.31 134.29-17.41L134.29-17.41Q134.29-18.14 134.18-18.76 134.07-19.38 133.79-19.84 133.51-20.29 133.02-20.53 132.54-20.78 131.78-20.78L131.78-20.78Q131.22-20.78 130.23-20.53 129.24-20.29 128.26-19.73 127.29-19.17 126.53-18.25 125.77-17.33 125.68-15.99L125.68-15.99Q125.53-14.18 125.41-12.9 125.29-11.62 125.19-10.73 125.09-9.84 125.03-9.28 124.97-8.72 124.94-8.33L124.94-8.33Q124.92-8.23 124.87-7.79 124.82-7.35 124.76-6.74 124.7-6.13 124.64-5.44 124.58-4.76 124.52-4.15 124.46-3.54 124.42-3.1 124.38-2.66 124.38-2.56L124.38-2.56Q124.38-2.37 124.39-2.23 124.41-2.1 124.41-1.98L124.41-1.98Q124.41-1.78 124.22-1.65 124.04-1.51 123.41-1.34L123.41-1.34 116.94 0.88Q116.67 0.98 116.23 1.12 115.79 1.27 115.37 1.27L115.37 1.27Q115.03 1.27 114.78 1.1 114.52 0.93 114.52 0.51L114.52 0.51 116.74-24.44Q116.81-25.24 116.92-25.55 117.03-25.85 117.47-25.95L117.47-25.95Q119.69-26.39 122.04-26.84 124.38-27.29 126.6-28L126.6-28Q126.8-28 126.84-27.94 126.87-27.88 126.87-27.76L126.87-27.76Q126.87-27.71 126.86-27.61 126.85-27.51 126.79-27.17 126.73-26.83 126.62-26.14 126.51-25.44 126.31-24.19L126.31-24.19Q128-25.17 129.47-25.77 130.95-26.37 132.26-26.7 133.56-27.03 134.71-27.14 135.86-27.25 136.86-27.25L136.86-27.25Q140.3-27.25 141.86-25.16 143.43-23.07 143.43-18.9L143.43-18.9Q143.43-18.31 143.4-17.69 143.38-17.07 143.3-16.41L143.3-16.41 142.18-5.91Q142.06-4.88 142.03-4.02 142.01-3.15 142.01-2L142.01-2Q142.01-1.81 142.02-1.67 142.03-1.54 142.03-1.44L142.03-1.44Q142.03-1.22 141.85-1.1 141.67-0.98 141.03-0.78L141.03-0.78Z" opacity="1" transform="matrix(1,0,0,1,0,0)" fill="#35185a" class="undefined-text-0" data-fill-palette-color="quaternary" id="text-0"></path></svg></g></svg></g></svg></g></svg></g><g transform="matrix(1,0,0,1,40.713262274387006,0)"><svg viewBox="0 0 131.7319166783831 60.02968795943646" height="60.02968795943646" width="131.7319166783831"><g><svg xmlns="http://www.w3.org/2000/svg" xmlns:xlink="http://www.w3.org/1999/xlink" version="1.1" x="0" y="0" viewBox="5 29.493873596191406 90 41.01262664794922" enable-background="new 0 0 100 100" xml:space="preserve" height="60.02968795943646" width="131.7319166783831" class="icon-icon-0" data-fill-palette-color="quaternary" id="icon-0"><g fill="#35185a" data-fill-palette-color="quaternary"><path d="M23.943 30.807L5 50.001l18.942 19.192c1.728 1.751 4.53 1.751 6.258 0.002 1.729-1.75 1.73-4.587 0.002-6.338L18.193 50.695l-3.624 2.289 15.634-15.841c0.864-0.875 1.295-2.021 1.295-3.168 0-1.147-0.433-2.295-1.297-3.17C28.473 29.056 25.671 29.057 23.943 30.807z" fill="#35185a" data-fill-palette-color="quaternary"></path><path d="M76.057 30.808L95 50.001 76.058 69.193c-1.728 1.751-4.53 1.751-6.258 0.002-1.729-1.75-1.73-4.587-0.002-6.338l12.009-12.161 3.624 2.289L69.796 37.144c-0.864-0.875-1.295-2.021-1.295-3.168 0-1.147 0.433-2.295 1.297-3.17C71.527 29.056 74.329 29.057 76.057 30.808z" fill="#35185a" data-fill-palette-color="quaternary"></path><path d="M60.899 32.352c-0.419-1.068-1.241-1.978-2.366-2.476-2.249-0.997-4.857 0.028-5.825 2.288l-13.82 32.062c-0.484 1.13-0.467 2.355-0.048 3.422 0.419 1.068 1.241 1.978 2.366 2.476 2.249 0.997 4.857-0.028 5.825-2.288l13.82-32.062C61.335 34.644 61.318 33.419 60.899 32.352z" fill="#35185a" data-fill-palette-color="quaternary"></path></g></svg></g></svg></g><g></g></svg></g></svg></g></svg></g></svg></g><defs></defs></svg><rect width="342.85155851775386" height="342.85155851775386" fill="none" stroke="none" visibility="hidden"></rect></g></svg></g></svg>